<svg xmlns="http://www.w3.org/2000/svg" width="75" height="75" fill="none" viewBox="0 0 75 75">
  <path fill="#663F4C" fill-rule="evenodd" d="M52.3516 45.6011c-.9171 3.0444-3.8021 4.5948-7.166 4.6525l-3.0909 2.7668V48.193h3.0909l.0803-.0031c1.9723-.0823 3.7051-.7656 4.4397-2.5888L50 44l2.3516 1.6011ZM66.8147 49.14c-.024-2.6003-1.1818-4.0378-4.636-4.0378-1.3655 0-.2939-2.0606 0-2.0606 4.4422 0 6.697 2.0676 6.697 6.1561l2.8333 3.1166h-4.8939v-3.0909l-.0004-.0834ZM61 33.9394c5.9699.0812 7.7273-1.0027 7.7273-4.6364h2.0606C70.7879 34.8957 67.4231 36 61 36v-2.0606Z" clip-rule="evenodd"/>
  <path fill="#663F4C" fill-rule="evenodd" d="M69.9091 29.6475s-3.0909.2575-3.0909-3.0909v-1.0304c0-.569.4613-1.0304 1.0303-1.0304s1.0303.4614 1.0303 1.0304c0-.569.4613-1.0304 1.0303-1.0304s1.0303.4614 1.0303 1.0304c0-.569.4613-1.0304 1.0303-1.0304S73 24.9572 73 25.5262c0 0 0 .4605-.0004 1.0304.0004 3.3484-3.0905 3.0909-3.0905 3.0909ZM51 33.9394c-5.9699.0812-7.8796-1.1732-7.8796-4.8068h-2.0606C41.0598 34.7252 44.5769 36 51 36v-2.0606Z" clip-rule="evenodd"/>
  <path fill="#663F4C" fill-rule="evenodd" d="M42.0927 29.6475s-3.0909.2575-3.0909-3.0909v-1.0304c0-.569.4613-1.0304 1.0303-1.0304s1.0303.4614 1.0303 1.0304c0-.569.4613-1.0304 1.0303-1.0304s1.0303.4614 1.0303 1.0304c0-.569.4613-1.0304 1.0303-1.0304s1.0303.4614 1.0303 1.0304c0 0 0 .4685-.0004 1.0304.0004 3.3484-3.0905 3.0909-3.0905 3.0909ZM50 42.5c.2775-.2854.7443-.4709 1.2983-.4879.828.0014 1.4909.4091 1.8497 1.0295l1.8209-.0003v-2.9807h-3.6044c-.2849 0-.5428-.1156-.7295-.3022-.1867-.1865-.3025-.4441-.3025-.7281 0-.2846.1152-.5422.3019-.7287S51.0791 38 51.3645 38h3.6044v-2h-4.3345c-.2849 0-.5427-.1156-.7295-.3022-.1867-.1865-.3025-.4441-.3025-.7281 0-.2846.1153-.5422.3019-.7287.1867-.1865.4447-.3016.7301-.3016h4.3345v-2.2313h-3.6044c-.2849 0-.5428-.1157-.7295-.3022-.1867-.1866-.3025-.4441-.3025-.7281v-2.0303h11.3334v2.0303c0 .2845-.1153.5422-.3019.7287-.1867.1864-.4447.3016-.7301.3016h-3.6044v2.2313h4.4396c.2779 0 .53.11.7156.2885.1841.1772.3029.422.3153.694-.0019.3051-.1142.5756-.3015.7698-.1857.1926-.4439.3083-.7294.3083h-4.4396v2h3.6044c.2778 0 .53.11.7155.2885.1842.1772.3029.422.3154.694-.002.3051-.1142.5756-.3016.7698-.1856.1926-.4438.3083-.7293.3083h-3.6044v2.9808l1.8209.0001c.3462-.5983.9846-1.0068 1.7204-1.0294.5868.0013 1.1091.22 1.4894.5797.3806.3598.5539.5715.571 1.127-.0013.5867-.22 1.109-.5797 1.4894-.3598.3806-.8598.6179-1.4153.6349l-9.3373.001c-.5691 0-1.0843-.2306-1.4572-.6035-.3728-.3728-.6034-.888-.6034-1.4571 0-.5586.4008-.9123.7617-1.2835Z" clip-rule="evenodd"/>
  <path fill="#663F4C" fill-rule="evenodd" d="M56.1577 29.6536c3.522.0053 4.4529-.0036 4.6792-.0057l.0573-.0005C64.8866 29.6475 64.7578 25 64.7578 25H51.9014C51 25 50 24.125 50 23s1-2 1.9014-2h12.8564v-9.3829c0-3.60605-2.0249-5.66666-5.6568-5.66666h-6.1711c-3.6319 0-5.6568 2.06061-5.6872 5.66666v13.9092s-.1288 3.9488 3.8643 4.1212c0 .0045.2796.0043 1.0918.004.7696-.0003 2.0175-.0009 3.9589.0021Zm-1.1615-13.4001c0 1.1379-.9226 2.0606-2.0606 2.0606s-2.0606-.9227-2.0606-2.0606c0-1.138.9226-2.0606 2.0606-2.0606s2.0606.9226 2.0606 2.0606Zm4.1269 2.0606c1.138 0 2.0606-.9227 2.0606-2.0606 0-1.138-.9226-2.0606-2.0606-2.0606s-2.0606.9226-2.0606 2.0606c0 1.1379.9226 2.0606 2.0606 2.0606Z" clip-rule="evenodd"/>
  <path fill="#663F4C" fill-rule="evenodd" d="M62.7283 20.9545v.7728c0 .4268.346.7727.7728.7727.4268 0 .7727-.3459.7727-.7727v-.7728h-1.5455Zm-3.0909 0v.7728c0 .4268.346.7727.7728.7727.4268 0 .7727-.3459.7727-.7727v-.7728h-1.5455Zm-3.0909 0v.7728c0 .4268.3459.7727.7727.7727.4269 0 .7728-.3459.7728-.7727v-.7728h-1.5455Zm-3.0909 0v.7728c0 .4268.3459.7727.7727.7727.4268 0 .7728-.3459.7728-.7727v-.7728h-1.5455ZM61.1829 25v-.7727c0-.4268.3459-.7727.7727-.7727.4268 0 .7727.3459.7727.7727V25h-1.5454Zm-3.0909 0v-.7727c0-.4268.3459-.7727.7727-.7727.4268 0 .7727.3459.7727.7727V25H58.092Zm-3.0909 0v-.7727c0-.4268.3459-.7727.7727-.7727.4268 0 .7727.3459.7727.7727V25h-1.5454Zm-3.0909 0v-.7727c0-.4268.3459-.7727.7727-.7727.4268 0 .7727.3459.7727.7727V25h-1.5454Zm-40.668 20.6097c-.9159 3.0404-3.79723 4.5889-7.1568 4.6465L.99844 53.0194v-4.8212H4.0854l.08017-.003c1.96978-.0823 3.70036-.7647 4.43405-2.5856V44.5l2.64258 1.1097Zm14.3697 3.2201c-.0239-2.5971-1.0987-3.7184-4.5484-3.7184-1.3638 0-.2936-2.0579 0-2.0579 4.4364 0 6.6068 1.7763 6.6068 5.8595L30.5 52h-4.8877v-3.087l-.0004-.0832ZM20 27.5h11v2H20v-2Z" clip-rule="evenodd"/>
  <path fill="#663F4C" fill-rule="evenodd" d="M37.385 25h-3.6897c-3.9973 0-3.6898 3.5001-3.6898 3.5001S29.698 32 33.6953 32h3.6897l-3.0748-2.3333L38 28.5l-3.6898-1.1667L37.385 25Zm0 8h-3.6897c-3.9973 0-3.6898 3.5001-3.6898 3.5001S29.698 40 33.6953 40h3.6897l-3.0748-2.3333L38 36.5l-3.6898-1.1667L37.385 33Z" clip-rule="evenodd"/>
  <path fill="#663F4C" d="M31 35.5H20v2h11v-2Z"/>
  <path fill="#663F4C" fill-rule="evenodd" d="m20.551 28.6477.0002 13.6521c.5974.3458 1.0052.9833 1.0278 1.718-.0014.5861-.2198 1.1077-.579 1.4876-.3594.3801-.8587.6171-1.4135.6341l-9.3254.001c-.56833 0-1.08286-.2303-1.45529-.6027-.37238-.3724-.60269-.8869-.60269-1.4553 0-.7619.414-1.427 1.02917-1.7829l-.00017-13.6519H20.551Zm-7.2029 8.2319c0-.2841-.1152-.5414-.3014-.7276-.1862-.1862-.4435-.3014-.7276-.3014-.2842 0-.5414.1152-.7276.3014-.1862.1862-.3014.4435-.3014.7276s.1152.5414.3014.7276c.1862.1862.4434.3014.7276.3014.2841 0 .5414-.1152.7276-.3014.1862-.1862.3014-.4435.3014-.7276Zm5.1449 4.1159c0-.2841-.1152-.5413-.3014-.7276-.1862-.1862-.4434-.3013-.7276-.3013-.2841 0-.5414.1151-.7276.3013-.1862.1863-.3014.4435-.3014.7276 0 .2842.1152.5414.3014.7277.1862.1862.4435.3013.7276.3013.2842 0 .5414-.1151.7276-.3013.1862-.1863.3014-.4435.3014-.7277Zm0-4.1159c0-.2841-.1152-.5414-.3014-.7276-.1862-.1862-.4434-.3014-.7276-.3014-.2841 0-.5414.1152-.7276.3014-.1862.1862-.3014.4435-.3014.7276s.1152.5414.3014.7276c.1862.1862.4435.3014.7276.3014.2842 0 .5414-.1152.7276-.3014.1862-.1862.3014-.4435.3014-.7276Zm-5.1449 4.1159c0-.2841-.1152-.5413-.3014-.7276-.1862-.1862-.4435-.3013-.7276-.3013-.2842 0-.5414.1151-.7276.3013-.1862.1863-.3014.4435-.3014.7276 0 .2842.1152.5414.3014.7277.1862.1862.4434.3013.7276.3013.2841 0 .5414-.1151.7276-.3013.1862-.1863.3014-.4435.3014-.7277Zm0-8.2318c0-.2842-.1152-.5414-.3014-.7277-.1862-.1862-.4435-.3013-.7276-.3013-.2842 0-.5414.1151-.7276.3013-.1862.1863-.3014.4435-.3014.7277 0 .2841.1152.5413.3014.7276.1862.1862.4434.3013.7276.3013.2841 0 .5414-.1151.7276-.3013.1862-.1863.3014-.4435.3014-.7276Zm5.1449 0c0-.2842-.1152-.5414-.3014-.7277-.1862-.1862-.4434-.3013-.7276-.3013-.2841 0-.5414.1151-.7276.3013-.1862.1863-.3014.4435-.3014.7277 0 .2841.1152.5413.3014.7276.1862.1862.4435.3013.7276.3013.2842 0 .5414-.1151.7276-.3013.1862-.1863.3014-.4435.3014-.7276Z" clip-rule="evenodd"/>
  <path fill="#663F4C" fill-rule="evenodd" d="M19.9491 29.9922h.0002l.0798-.0005C24.1319 29.9918 23.9995 25 23.9995 25H10.7879C10 25 9 24 9 23c0-1.4403 1.5-2 1.7879-2h13.2116v-9.2629C23.9995 8.08624 21.9187 6 18.1864 6h-6.3416c-3.73223 0-5.81306 2.08624-5.84431 5.7371v14.0822s-.13235 3.9979 3.97108 4.1725c0 .0043.25973.0042 1.03303.004h.0008c.7416-.0003 1.9551-.0007 3.8641.0024 3.4369.0057 4.7548-.0037 5.0796-.006Zm-6.0519-13.6928c0 1.1365-.9215 2.058-2.058 2.058-1.1365 0-2.05795-.9215-2.05795-2.058 0-1.1365.92145-2.0579 2.05795-2.0579 1.1365 0 2.058.9214 2.058 2.0579Zm4.1139 2.058c1.1365 0 2.058-.9215 2.058-2.058 0-1.1365-.9215-2.0579-2.058-2.0579-1.1365 0-2.058.9214-2.058 2.0579s.9215 2.058 2.058 2.058Z" clip-rule="evenodd"/>
  <path fill="#663F4C" fill-rule="evenodd" d="m23.6673 25.0458-1.0289-2.058-1.029 2.058h2.0579Zm-3.0859 0-1.029-2.058-1.029 2.058h2.058Zm-3.0859 0-1.029-2.058-1.029 2.058h2.058Zm-3.0899 0-1.029-2.058-1.0289 2.058h2.0579Zm-3.0859 0-1.029-2.058-1.02898 2.058h2.05798Zm10.8047-4.1159-1.029 2.058-1.029-2.058h2.058Zm-3.086 0-1.0289 2.058-1.029-2.058h2.0579Zm-3.0859 0-1.029 2.058-1.029-2.058h2.058Zm-3.0859 0-1.029 2.058-1.029-2.058h2.058Z" clip-rule="evenodd"/>
</svg>